<?xml version="1.0" encoding="UTF-8" standalone="no"?>
<svg
   xmlns:dc="http://purl.org/dc/elements/1.1/"
   xmlns:cc="http://creativecommons.org/ns#"
   xmlns:rdf="http://www.w3.org/1999/02/22-rdf-syntax-ns#"
   xmlns:svg="http://www.w3.org/2000/svg"
   xmlns="http://www.w3.org/2000/svg"
   id="svg8"
   version="1.1"
   viewBox="0 0 210 297"
   height="297mm"
   width="210mm">
  <defs
     id="defs2" />
  <metadata
     id="metadata5">
    <rdf:RDF>
      <cc:Work
         rdf:about="">
        <dc:format>image/svg+xml</dc:format>
        <dc:type
           rdf:resource="http://purl.org/dc/dcmitype/StillImage" />
        <dc:title></dc:title>
      </cc:Work>
    </rdf:RDF>
  </metadata>
  <g
     id="layer1">
    <g
       transform="matrix(0.51945463,0,0,0.40723912,2.3612521,-2.1399103)"
       id="g3717">
      <g
         id="g3684">
        <path
           id="path3686"
           style="fill:#353564;fill-rule:evenodd;stroke:none;stroke-width:0.5196352;stroke-linejoin:round"
           d="M 4.9136922,67.834161 V 55.76068 l 17.2253038,5.149005 v 10.085712 z"
           points="4.9136922,55.76068 22.138996,60.909685 22.138996,70.995397 4.9136922,67.834161 " />
        <path
           id="path3696"
           style="fill:#e9e9ff;fill-rule:evenodd;stroke:none;stroke-width:0.5196352;stroke-linejoin:round"
           d="M 22.138996,70.995397 93.794601,57.52108 V 38.962788 L 22.138996,60.909685 Z"
           points="93.794601,57.52108 93.794601,38.962788 22.138996,60.909685 22.138996,70.995397 " />
        <path
           id="path3694"
           style="fill:#afafde;fill-rule:evenodd;stroke:none;stroke-width:0.5196352;stroke-linejoin:round"
           d="M 4.9136922,55.76068 86.952286,18.070135 93.794601,38.962788 22.138996,60.909685 Z"
           points="86.952286,18.070135 93.794601,38.962788 22.138996,60.909685 4.9136922,55.76068 " />
        <path
           id="path3688"
           style="fill:#4d4d9f;fill-rule:evenodd;stroke:none;stroke-width:0.5196352;stroke-linejoin:round"
           d="M 4.9136922,67.834161 86.952286,44.694017 93.794601,57.52108 22.138996,70.995397 Z"
           points="86.952286,44.694017 93.794601,57.52108 22.138996,70.995397 4.9136922,67.834161 " />
        <path
           id="path3692"
           style="fill:#d7d7ff;fill-rule:evenodd;stroke:none;stroke-width:0.5196352;stroke-linejoin:round"
           d="M 86.952286,44.694017 V 18.070135 l 6.842315,20.892653 V 57.52108 Z"
           points="86.952286,18.070135 93.794601,38.962788 93.794601,57.52108 86.952286,44.694017 " />
        <path
           id="path3690"
           style="fill:#8686bf;fill-rule:evenodd;stroke:none;stroke-width:0.5196352;stroke-linejoin:round"
           d="M 4.9136922,67.834161 86.952286,44.694017 V 18.070135 L 4.9136922,55.76068 Z"
           points="86.952286,44.694017 86.952286,18.070135 4.9136922,55.76068 4.9136922,67.834161 " />
      </g>
      <text
         xml:space="preserve"
         style="font-style:normal;font-weight:normal;font-size:10.67719173px;line-height:1.25;font-family:sans-serif;letter-spacing:0px;word-spacing:0px;fill:#000000;fill-opacity:1;stroke:none;stroke-width:0.26692981"
         x="-6.4729896"
         y="63.105602"
         id="text3700"
         transform="matrix(0.95515466,-0.32480058,0.31911528,0.93843564,0,0)"><tspan
           id="tspan3698"
           x="-6.4729896"
           y="63.105602"
           style="font-style:normal;font-variant:normal;font-weight:normal;font-stretch:normal;font-family:'Bauhaus 93';-inkscape-font-specification:'Bauhaus 93, ';fill:#ffff00;stroke-width:0.26692981">Huamán</tspan></text>
      <text
         xml:space="preserve"
         style="font-style:normal;font-weight:normal;font-size:10.58333302px;line-height:1.25;font-family:sans-serif;letter-spacing:0px;word-spacing:0px;fill:#000000;fill-opacity:1;stroke:none;stroke-width:0.26458332"
         x="41.80373"
         y="64.664864"
         id="text3704"
         transform="rotate(-21.43223)"><tspan
           id="tspan3702"
           x="41.80373"
           y="64.664864"
           style="font-style:normal;font-variant:normal;font-weight:normal;font-stretch:normal;font-family:'Bauhaus 93';-inkscape-font-specification:'Bauhaus 93, ';fill:#ffff00;stroke-width:0.26458332">Díaz</tspan></text>
    </g>
  </g>
</svg>
